<svg width="48" height="48" viewBox="0 0 48 48" fill="none" xmlns="http://www.w3.org/2000/svg">
<path fill-rule="evenodd" clip-rule="evenodd" d="M43.1998 37.0961L43.1899 37.0826C43.1934 37.0801 43.1971 37.0789 43.1998 37.0766L39.6181 32.2751L29.2173 18.2762L37.3852 7.24731L42.1562 0.81191C42.1549 0.81109 42.1537 0.81068 42.1525 0.809655L42.1562 0.804532L42.1461 0.806171C40.2818 -0.551002 37.6628 -0.154836 36.2913 1.69524L23.9998 18.2762L37.3322 36.2103C38.7052 38.0514 41.3143 38.4412 43.1738 37.092L43.1998 37.0961ZM23.9998 29.7238L10.6673 11.7897C9.29435 9.94866 6.68532 9.55885 4.82641 10.9078L4.7998 10.9039L4.80991 10.9175C4.80829 10.9186 4.80649 10.9196 4.80467 10.9206C4.80303 10.9214 4.80137 10.9223 4.7998 10.9234L8.3815 15.7249L18.7822 29.7238L10.6147 40.7527L5.84342 47.188C5.84466 47.1889 5.84589 47.1895 5.84775 47.1903L5.84342 47.1954L5.85352 47.1938C7.71841 48.551 10.3367 48.155 11.7089 46.3045L23.9998 29.7238Z" fill="white"/>
</svg>
